# xmcd CD database file
# Copyright (C) 1997 Ti Kan
# 
# Track frame offsets:
#     150
#     18005
#     34547
#     69190
#     92122
#     108197
#     125440
#     145032
#     160785
#     178935
#     195430
#     223375
#     240937
# 
# Disc length: 3428 seconds
# 
# Revision: 1
# Processed by: cddbd v1.4b41PL1 Copyright (c) Steve Scherf et al.
# Submitted via: DiscPlay 4.0.4
# 
DISCID=a20d620d
DTITLE=Various Artist - Best Dance Album of The Year- Vol.2
DYEAR=1900
DGENRE=
TTITLE0=Scatman- Power Band
TTITLE1=Get Away- Shauna Davis
TTITLE2=Your Loving Arms- Martha Williams
TTITLE3=Never Let you Go- Temperance
TTITLE4=Take Control- BKS
TTITLE5=Sex On The Streets- Pizzaman
TTITLE6=Don't Stop, Wiggle Wiggle- Outhere Bros.
TTITLE7=Sunshine After The Rain- New Atlantic
TTITLE8=Find Me- Jam and Spoon
TTITLE9=Move On Baby- Cappella
TTITLE10=Lover On The Line- The Free
TTITLE11=Anybody (Movin' On)- Masterboy
TTITLE12=Everybody on the Floor- Tokyo Getto Pussy
EXTD=
EXTT0=
EXTT1=
EXTT2=
EXTT3=
EXTT4=
EXTT5=
EXTT6=
EXTT7=
EXTT8=
EXTT9=
EXTT10=
EXTT11=
EXTT12=
PLAYORDER=
